<?xml version="1.0" encoding="utf-8"?>
<!-- Generator: Adobe Illustrator 24.2.0, SVG Export Plug-In . SVG Version: 6.00 Build 0)  -->
<svg version="1.1" id="Layer_1" xmlns="http://www.w3.org/2000/svg" xmlns:xlink="http://www.w3.org/1999/xlink" x="0px" y="0px"
	 viewBox="0 0 245.7 385.4" style="enable-background:new 0 0 245.7 385.4;" xml:space="preserve">
<g>
	<path style="fill:#006A91;" d="M122.8,0C55,0,0,55,0,122.8C-0.7,240,122.8,385.4,122.8,385.4S246.4,240,245.7,122.8C245.7,55,190.7,0,122.8,0L122.8,0z
		 M122.8,175c-28.8,0-52.1-23.3-52.1-52.1c0-28.8,23.3-52.1,52.1-52.1S175,94.1,175,122.8c0,0,0,0,0,0
		C175,151.6,151.7,174.9,122.8,175C122.9,175,122.9,175,122.8,175z"/>
</g>
</svg>
