<?xml version="1.0" encoding="utf-8"?>
<!-- Generator: Adobe Illustrator 25.1.0, SVG Export Plug-In . SVG Version: 6.00 Build 0)  -->
<svg version="1.1" id="Capa_1" xmlns="http://www.w3.org/2000/svg" xmlns:xlink="http://www.w3.org/1999/xlink" x="0px" y="0px"
	 viewBox="0 0 471 471" style="enable-background:new 0 0 471 471;" xml:space="preserve">
<style type="text/css">
	.st0{fill:#2B688D;}
	.st1{fill:#FFFFFF;}
</style>
<circle class="st0" cx="235.5" cy="238" r="233"/>
<g>
	<g>
		<g>
			<path class="st1" d="M346.6,161.9h-30.5l-16.8-25.4c-6.3-9.5-17.5-15.2-28.9-15.2h-69.8c-11.4,0-22.5,5.7-28.9,15.2l-16.8,25.4
				h-30.5c-19.4,0-34.9,15.6-34.9,34.9v123.1c0,19.4,15.6,34.9,34.9,34.9h222.1c19.4,0,34.9-15.6,34.9-34.9V196.8
				C381.5,177.4,366,161.9,346.6,161.9z M235.5,326.2c-43.5,0-78.7-35.2-78.7-78.7s35.2-78.4,78.7-78.4s78.7,35.2,78.7,78.7
				C314.2,291,279,326.2,235.5,326.2z M342.1,211c-0.3,0-0.6,0-1.3,0h-12.7c-5.7-0.3-10.2-5.1-9.8-10.8c0.3-5.4,4.4-9.5,9.8-9.8
				h12.7c5.7-0.3,10.5,4.1,10.8,9.8C352,206,347.9,210.7,342.1,211z"/>
		</g>
	</g>
	<g>
		<g>
			<path class="st1" d="M235.5,204.1c-24.1,0-43.8,19.7-43.8,43.8s19.7,43.5,43.8,43.5s43.8-19.7,43.8-43.8
				C279.3,223.4,259.6,204.1,235.5,204.1z"/>
		</g>
	</g>
</g>
</svg>
