<?xml version="1.0" encoding="utf-8"?>
<!-- Generator: Adobe Illustrator 24.2.0, SVG Export Plug-In . SVG Version: 6.00 Build 0)  -->
<svg version="1.1" id="Capa_1" xmlns="http://www.w3.org/2000/svg" xmlns:xlink="http://www.w3.org/1999/xlink" x="0px" y="0px"
	 viewBox="0 0 512 512" style="enable-background:new 0 0 512 512;" xml:space="preserve">
<style type="text/css">
	.st0{fill:#FFFFFF;}
</style>
<path class="st0" d="M256,0C114.6,0,0,114.6,0,256s114.6,256,256,256s256-114.6,256-256S397.4,0,256,0z"/>
<path style="fill:#006A91;" d="M256,19C125.1,19,19,125.1,19,256s106.1,237,237,237s237-106.1,237-237S386.9,19,256,19z"/>
<path class="st0" d="M200.8,406.6c0.1,12.9-10.4,23.2-23.2,23.2c-13,0-23.2-11-23.2-23.2l7.4-130.9h-24.2l-0.1-141.1
	c0-12.4,4.7-24.6,13.8-35.2c7.9-9.3,18.8-17,31.6-22.7l4.8-2.1l13.2,6.7L200.8,406.6z"/>
<path class="st0" d="M363.3,198.5c0,10.6-3.9,20.8-10.9,28.7c-1.8,1.9-3.1,4.2-4.2,6.7v167.8c0,15.6-12.6,28.1-28.1,28.1
	c-15.6,0-28.1-12.6-28.1-28.1V233.9c-1.1-2.5-2.4-4.8-4.2-6.9c-7-7.9-10.9-18.1-10.9-28.7l-0.2-107.8l17.4,0.1v87.7h17.3l0.1-87.6
	h17.3l-0.1,87.6H346l0.1-87.6h17.3L363.3,198.5z"/>
</svg>
