<?xml version="1.0" encoding="utf-8"?>
<!-- Generator: Adobe Illustrator 24.2.0, SVG Export Plug-In . SVG Version: 6.00 Build 0)  -->
<svg version="1.1" id="Layer_1" xmlns="http://www.w3.org/2000/svg" xmlns:xlink="http://www.w3.org/1999/xlink" x="0px" y="0px"
	 viewBox="0 0 512 512" style="enable-background:new 0 0 512 512;" xml:space="preserve">
<style type="text/css">
	.st0{fill:#FFFFFF;}
</style>
<path class="st0" d="M256,0C114.6,0,0,114.6,0,256s114.6,256,256,256s256-114.6,256-256S397.4,0,256,0z"/>
<path style="fill:#006A91;" d="M256,19C125.1,19,19,125.1,19,256s106.1,237,237,237s237-106.1,237-237S386.9,19,256,19z"/>
<path class="st0" d="M380.4,377.7l-17.6-199.7c-1.3-15.1-13.8-26.4-28.9-26.4c-3.4,0-6.3,2.8-6.3,6.3v31.2c0,3.1-2.4,5.8-5.4,6
	c-3.4,0.2-6.2-2.5-6.2-5.8v-67.4c0-33.1-27-60.1-60.1-60.1c-33.1,0-60.1,27-60.1,60.1v29.7H178c-15.1,0-27.5,11.4-28.9,26.4
	l-17.6,199.7c-1.5,16.9,11.9,31.5,28.9,31.5h191.2C368.6,409.1,381.9,394.5,380.4,377.7z M304.5,151.5h-79.1c-3.4,0-6.3,2.8-6.3,6.3
	v31.2c0,3.1-2.4,5.8-5.4,6c-3.4,0.2-6.2-2.5-6.2-5.8v-67.4c0-26.7,21.8-48.5,48.5-48.5c26.7,0,48.5,21.8,48.5,48.6V151.5z"/>
</svg>
