<?xml version="1.0" encoding="utf-8"?>
<!-- Generator: Adobe Illustrator 24.2.0, SVG Export Plug-In . SVG Version: 6.00 Build 0)  -->
<svg version="1.1" id="Capa_1" xmlns="http://www.w3.org/2000/svg" xmlns:xlink="http://www.w3.org/1999/xlink" x="0px" y="0px"
	 viewBox="0 0 320.8 320.5" style="enable-background:new 0 0 320.8 320.5;" xml:space="preserve">
<g>
	<g>
		<g>
			<path style="fill:#006A91;" d="M277.3,0.5H42.7C19.1,0.5,0,19.6,0,43.1v234.7c0,23.5,19.1,42.7,42.7,42.7h234.7c23.5,0,42.7-19.1,42.7-42.7V43.1
				C320,19.6,300.9,0.5,277.3,0.5z M138.7,43.1c5.9,0,10.7,4.8,10.7,10.7c0,5.9-4.8,10.7-10.7,10.7S128,59.7,128,53.8
				C128,47.9,132.8,43.1,138.7,43.1z M96,43.1c5.9,0,10.7,4.8,10.7,10.7c0,5.9-4.8,10.7-10.7,10.7s-10.7-4.8-10.7-10.7
				C85.3,47.9,90.1,43.1,96,43.1z M53.3,43.1c5.9,0,10.7,4.8,10.7,10.7c0,5.9-4.8,10.7-10.7,10.7s-10.7-4.8-10.7-10.7
				C42.7,47.9,47.4,43.1,53.3,43.1z M277.3,277.8H42.7V107.1h234.7L277.3,277.8L277.3,277.8z"/>
		</g>
	</g>
</g>
</svg>
